<?xml version="1.0" standalone="no"?>
<!DOCTYPE svg PUBLIC "-//W3C//DTD SVG 20010904//EN"
 "http://www.w3.org/TR/2001/REC-SVG-20010904/DTD/svg10.dtd">
<svg version="1.0" xmlns="http://www.w3.org/2000/svg"
 width="1024.000000pt" height="1024.000000pt" viewBox="0 0 1024.000000 1024.000000"
 preserveAspectRatio="xMidYMid meet">
<metadata>
Created by potrace 1.14, written by Peter Selinger 2001-2017
</metadata>
<g transform="translate(0.000000,1024.000000) scale(0.100000,-0.100000)"
fill="#000000" stroke="none">
<path d="M512 6657 l-512 -512 512 -512 511 -511 -506 -507 c-279 -279 -507
-511 -507 -517 0 -10 1004 -1018 1014 -1018 3 0 232 227 510 505 278 278 509
505 513 505 5 0 237 -229 516 -508 l509 -509 508 509 c279 279 512 508 517
508 4 0 236 -228 515 -507 l508 -508 508 508 c279 279 511 507 515 507 4 0
234 -227 512 -505 278 -278 508 -505 512 -505 5 0 235 227 513 505 278 278
508 505 513 505 4 0 229 -222 500 -492 272 -271 501 -499 510 -507 15 -12 71
41 527 497 l510 510 -512 512 -511 512 511 511 512 512 -512 512 -513 513
-512 -512 -512 -512 -511 512 -512 512 -512 -512 -512 -513 -512 513 -512 513
-510 -511 c-281 -280 -513 -510 -515 -510 -2 0 -233 230 -513 510 l-510 510
-512 -512 -511 -512 -512 512 -512 512 -513 -513z"/>
</g>
</svg>
